<svg xmlns="http://www.w3.org/2000/svg" viewBox="0 0 58 68" width="58" height="68">
  <defs>
    <linearGradient id="duckBody" x1="0%" y1="0%" x2="0%" y2="100%">
      <stop offset="0%" stop-color="#FFE042" />
      <stop offset="100%" stop-color="#FFB000" />
    </linearGradient>
    <linearGradient id="duckBeak" x1="0%" y1="0%" x2="100%" y2="100%">
      <stop offset="0%" stop-color="#FF9E2C" />
      <stop offset="100%" stop-color="#FF5E00" />
    </linearGradient>
  </defs>
  
  <!-- Left Foot / Leg (Tucked up) -->
  <path d="M15,48 L10,54 L12,58 L16,56 L15,48 Z" fill="#E65100" />
  
  <!-- Right Foot / Leg (Tucked up) -->
  <path d="M27,48 L22,54 L24,58 L28,56 L27,48 Z" fill="#FF7A00" />

  <!-- Duck Body (stretched vertically) -->
  <path d="M12,38 C12,28 18,22 28,22 C38,22 40,28 40,38 C40,46 36,50 28,50 C18,50 12,46 12,38 Z" fill="url(#duckBody)" />
  
  <!-- Duck Head (tilted upward slightly) -->
  <circle cx="34" cy="18" r="13" fill="url(#duckBody)" />
  
  <!-- Connection / Neck fill -->
  <path d="M26,22 C26,22 29,32 34,30 C39,28 38,22 38,22 Z" fill="url(#duckBody)" />
  
  <!-- Cute Pink Cheek -->
  <circle cx="31" cy="20" r="3" fill="#FF8787" opacity="0.8" />
  
  <!-- Beak (pointing upwards slightly, opened in 'Wheee!') -->
  <path d="M44,14 C44,14 52,10 55,13 L47,20 C45,18 43,15 44,14 Z" fill="url(#duckBeak)" />
  
  <!-- Sunglasses (slightly tilted) -->
  <g transform="rotate(-10 38 12)">
    <rect x="28" y="10" width="20" height="6" rx="1" fill="#1E293B" />
    <path d="M28,11 L22,14" stroke="#1E293B" stroke-width="2" />
    <line x1="33" y1="11" x2="35" y2="15" stroke="#FFFFFF" stroke-width="1.5" stroke-linecap="round" />
    <line x1="41" y1="11" x2="43" y2="15" stroke="#FFFFFF" stroke-width="1.5" stroke-linecap="round" />
  </g>
  
  <!-- Wings (Spread out / flapping upwards) -->
  <!-- Left Wing (background) -->
  <path d="M12,30 C6,24 2,28 4,36 C6,44 14,38 12,30 Z" fill="#FFB000" opacity="0.7" />
  <!-- Right Wing (foreground) -->
  <path d="M16,32 C20,18 28,18 26,28 C24,38 18,38 16,32 Z" fill="#FFE042" stroke="#E5A900" stroke-width="1" />
</svg>
